<?xml version="1.0" encoding="UTF-8"?><svg id="uuid-aeba1bbb-1b04-44f7-9c04-d892b1bd0f6d" xmlns="http://www.w3.org/2000/svg" viewBox="0 0 102.638 82.111"><path d="M27.293,29.207c-6.019,21.692,20.198,32.578,32.283,16.186-8.739,23.239-46.168,8.225-32.283-16.186Z"/><path d="M54.34,14.545c-22.498,.77-25.011,29.047-5.748,35.653-24.791-1.36-21.706-41.569,5.748-35.653Z"/><path d="M76.323,35.189c-8.37-20.897-35.817-13.652-35.485,6.71-7.146-23.778,31.719-34.54,35.485-6.71Z"/><path d="M63.621,63.342c17.421-14.257,2.27-38.264-17.053-31.834,20.536-13.954,42.469,19.887,17.053,31.834Z"/><path d="M32.475,59.016c18.516,12.803,37.401-8.391,25.883-25.185,19.085,15.881-7.379,46.311-25.883,25.185Z"/><path d="M42.627,36.427c-2.104,7.584,7.062,11.39,11.287,5.659-3.055,8.125-16.141,2.876-11.287-5.659Z"/><path d="M52.083,31.301c-7.866,.269-8.745,10.155-2.01,12.465-8.667-.475-7.589-14.533,2.01-12.465Z"/><path d="M59.769,38.518c-2.926-7.306-12.523-4.773-12.406,2.346-2.498-8.313,11.09-12.076,12.406-2.346Z"/><path d="M55.328,48.361c6.091-4.985,.794-13.378-5.962-11.13,7.18-4.879,14.848,6.953,5.962,11.13Z"/><path d="M44.439,46.849c6.473,4.476,13.076-2.934,9.049-8.805,6.673,5.552-2.58,16.191-9.049,8.805Z"/></svg>